<svg width="600" height="250" viewBox="0 0 600 250" fill="none" xmlns="http://www.w3.org/2000/svg">
  <g clip-path="url(#clip0_4_98)" filter="url(#filter0_d_4_98)">
    <rect x="47" y="180" width="500" height="10" fill="white" />
    <rect x="47" y="200" width="500" height="10" fill="white" />
    <path
      d="M73.262 79.44C73.262 81.4027 73.0913 83.1093 72.75 84.56H59.95C59.6087 83.1093 59.438 81.4027 59.438 79.44C59.438 77.392 59.6087 75.6853 59.95 74.32H72.75C73.0913 75.6853 73.262 77.392 73.262 79.44ZM59.95 125.52C60.2913 126.885 60.462 128.592 60.462 130.64C60.462 132.603 60.2913 134.309 59.95 135.76H53.55C53.2087 134.309 53.038 132.603 53.038 130.64C53.038 128.592 53.2087 126.885 53.55 125.52H49.71C49.3687 124.069 49.198 122.363 49.198 120.4C49.198 118.352 49.3687 116.645 49.71 115.28C49.3687 113.829 49.198 112.123 49.198 110.16C49.198 108.112 49.3687 106.405 49.71 105.04C49.3687 103.589 49.198 101.883 49.198 99.92C49.198 97.872 49.3687 96.1653 49.71 94.8H53.55C53.2087 93.3493 53.038 91.6427 53.038 89.68C53.038 87.632 53.2087 85.9253 53.55 84.56H59.95C60.2913 85.9253 60.462 87.632 60.462 89.68C60.462 91.6427 60.2913 93.3493 59.95 94.8C60.2913 96.1653 60.462 97.872 60.462 99.92C60.462 101.883 60.2913 103.589 59.95 105.04C60.2913 106.405 60.462 108.112 60.462 110.16C60.462 112.123 60.2913 113.829 59.95 115.28C60.2913 116.645 60.462 118.352 60.462 120.4C60.462 122.363 60.2913 124.069 59.95 125.52ZM82.99 105.04C83.3313 106.405 83.502 108.112 83.502 110.16C83.502 112.123 83.3313 113.829 82.99 115.28C83.3313 116.645 83.502 118.352 83.502 120.4C83.502 122.363 83.3313 124.069 82.99 125.52H79.15C79.4913 126.885 79.662 128.592 79.662 130.64C79.662 132.603 79.4913 134.309 79.15 135.76H72.75C72.4087 134.309 72.238 132.603 72.238 130.64C72.238 128.592 72.4087 126.885 72.75 125.52C72.4087 124.069 72.238 122.363 72.238 120.4C72.238 118.352 72.4087 116.645 72.75 115.28C72.4087 113.829 72.238 112.123 72.238 110.16C72.238 108.112 72.4087 106.405 72.75 105.04C72.4087 103.589 72.238 101.883 72.238 99.92C72.238 97.872 72.4087 96.1653 72.75 94.8C72.4087 93.3493 72.238 91.6427 72.238 89.68C72.238 87.632 72.4087 85.9253 72.75 84.56H79.15C79.4913 85.9253 79.662 87.632 79.662 89.68C79.662 91.6427 79.4913 93.3493 79.15 94.8H82.99C83.3313 96.1653 83.502 97.872 83.502 99.92C83.502 101.883 83.3313 103.589 82.99 105.04ZM59.438 140.88C59.438 138.832 59.6087 137.125 59.95 135.76H72.75C73.0913 137.125 73.262 138.832 73.262 140.88C73.262 142.843 73.0913 144.549 72.75 146H59.95C59.6087 144.549 59.438 142.843 59.438 140.88ZM135.52 135.76C135.861 137.125 136.032 138.832 136.032 140.88C136.032 142.843 135.861 144.549 135.52 146H125.28C124.939 144.549 124.768 142.843 124.768 140.88C124.768 138.832 124.939 137.125 125.28 135.76H121.44C121.099 134.309 120.928 132.603 120.928 130.64C120.928 128.592 121.099 126.885 121.44 125.52H115.04C115.381 126.885 115.552 128.592 115.552 130.64C115.552 132.603 115.381 134.309 115.04 135.76H109.92C110.261 137.125 110.432 138.832 110.432 140.88C110.432 142.843 110.261 144.549 109.92 146H99.68C99.3387 144.549 99.168 142.843 99.168 140.88C99.168 138.832 99.3387 137.125 99.68 135.76H104.8C104.459 134.309 104.288 132.603 104.288 130.64C104.288 128.592 104.459 126.885 104.8 125.52H109.92C109.579 124.069 109.408 122.363 109.408 120.4C109.408 118.352 109.579 116.645 109.92 115.28H104.8C104.459 113.829 104.288 112.123 104.288 110.16C104.288 108.112 104.459 106.405 104.8 105.04H99.68C99.3387 103.589 99.168 101.883 99.168 99.92C99.168 97.872 99.3387 96.1653 99.68 94.8H109.92C110.261 96.1653 110.432 97.872 110.432 99.92C110.432 101.883 110.261 103.589 109.92 105.04H115.04C115.381 106.405 115.552 108.112 115.552 110.16C115.552 112.123 115.381 113.829 115.04 115.28H121.44C121.099 113.829 120.928 112.123 120.928 110.16C120.928 108.112 121.099 106.405 121.44 105.04H125.28C124.939 103.589 124.768 101.883 124.768 99.92C124.768 97.872 124.939 96.1653 125.28 94.8H135.52C135.861 96.1653 136.032 97.872 136.032 99.92C136.032 101.883 135.861 103.589 135.52 105.04H131.68C132.021 106.405 132.192 108.112 132.192 110.16C132.192 112.123 132.021 113.829 131.68 115.28H125.28C125.621 116.645 125.792 118.352 125.792 120.4C125.792 122.363 125.621 124.069 125.28 125.52H131.68C132.021 126.885 132.192 128.592 132.192 130.64C132.192 132.603 132.021 134.309 131.68 135.76H135.52ZM189.33 84.56C189.671 85.9253 189.842 87.632 189.842 89.68C189.842 91.6427 189.671 93.3493 189.33 94.8C189.671 96.1653 189.842 97.872 189.842 99.92C189.842 101.883 189.671 103.589 189.33 105.04C189.671 106.405 189.842 108.112 189.842 110.16C189.842 112.123 189.671 113.829 189.33 115.28C189.671 116.645 189.842 118.352 189.842 120.4C189.842 122.363 189.671 124.069 189.33 125.52C189.671 126.885 189.842 128.592 189.842 130.64C189.842 132.603 189.671 134.309 189.33 135.76C189.671 137.125 189.842 138.832 189.842 140.88C189.842 142.843 189.671 144.549 189.33 146H179.09C178.749 144.549 178.578 142.843 178.578 140.88C178.578 138.832 178.749 137.125 179.09 135.76H175.25C174.909 134.309 174.738 132.603 174.738 130.64C174.738 128.592 174.909 126.885 175.25 125.52H179.09C178.749 124.069 178.578 122.363 178.578 120.4C178.578 118.352 178.749 116.645 179.09 115.28H175.25C174.909 113.829 174.738 112.123 174.738 110.16C174.738 108.112 174.909 106.405 175.25 105.04H179.09C178.749 103.589 178.578 101.883 178.578 99.92C178.578 97.872 178.749 96.1653 179.09 94.8C178.749 93.3493 178.578 91.6427 178.578 89.68C178.578 87.632 178.749 85.9253 179.09 84.56C178.749 83.1093 178.578 81.4027 178.578 79.44C178.578 77.392 178.749 75.6853 179.09 74.32H189.33C189.671 75.6853 189.842 77.392 189.842 79.44C189.842 81.4027 189.671 83.1093 189.33 84.56ZM173.202 99.92C173.202 101.883 173.031 103.589 172.69 105.04H159.89C160.231 106.405 160.402 108.112 160.402 110.16C160.402 112.123 160.231 113.829 159.89 115.28H156.05C156.391 116.645 156.562 118.352 156.562 120.4C156.562 122.363 156.391 124.069 156.05 125.52H159.89C160.231 126.885 160.402 128.592 160.402 130.64C160.402 132.603 160.231 134.309 159.89 135.76H172.69C173.031 137.125 173.202 138.832 173.202 140.88C173.202 142.843 173.031 144.549 172.69 146H158.61C158.269 144.549 158.098 142.843 158.098 140.88C158.098 138.832 158.269 137.125 158.61 135.76H152.21C151.869 134.309 151.698 132.603 151.698 130.64C151.698 128.592 151.869 126.885 152.21 125.52H148.37C148.029 124.069 147.858 122.363 147.858 120.4C147.858 118.352 148.029 116.645 148.37 115.28H152.21C151.869 113.829 151.698 112.123 151.698 110.16C151.698 108.112 151.869 106.405 152.21 105.04H158.61C158.269 103.589 158.098 101.883 158.098 99.92C158.098 97.872 158.269 96.1653 158.61 94.8H172.69C173.031 96.1653 173.202 97.872 173.202 99.92ZM241.092 110.16C241.092 112.123 240.921 113.829 240.58 115.28C240.921 116.645 241.092 118.352 241.092 120.4C241.092 122.363 240.921 124.069 240.58 125.52H213.7C214.041 126.885 214.212 128.592 214.212 130.64C214.212 132.603 214.041 134.309 213.7 135.76H235.46C235.801 137.125 235.972 138.832 235.972 140.88C235.972 142.843 235.801 144.549 235.46 146H209.86C209.519 144.549 209.348 142.843 209.348 140.88C209.348 138.832 209.519 137.125 209.86 135.76H203.46C203.119 134.309 202.948 132.603 202.948 130.64C202.948 128.592 203.119 126.885 203.46 125.52H199.62C199.279 124.069 199.108 122.363 199.108 120.4C199.108 118.352 199.279 116.645 199.62 115.28H203.46C203.119 113.829 202.948 112.123 202.948 110.16C202.948 108.112 203.119 106.405 203.46 105.04H209.86C209.519 103.589 209.348 101.883 209.348 99.92C209.348 97.872 209.519 96.1653 209.86 94.8H235.46C235.801 96.1653 235.972 97.872 235.972 99.92C235.972 101.883 235.801 103.589 235.46 105.04H240.58C240.921 106.405 241.092 108.112 241.092 110.16ZM230.34 115.28C229.999 113.829 229.828 112.123 229.828 110.16C229.828 108.112 229.999 106.405 230.34 105.04H213.7C214.041 106.405 214.212 108.112 214.212 110.16C214.212 112.123 214.041 113.829 213.7 115.28H230.34ZM291.83 135.76C292.171 137.125 292.342 138.832 292.342 140.88C292.342 142.843 292.171 144.549 291.83 146H281.59C281.249 144.549 281.078 142.843 281.078 140.88C281.078 138.832 281.249 137.125 281.59 135.76H276.47C276.129 134.309 275.958 132.603 275.958 130.64C275.958 128.592 276.129 126.885 276.47 125.52H261.11C261.451 126.885 261.622 128.592 261.622 130.64C261.622 132.603 261.451 134.309 261.11 135.76H276.47C276.811 137.125 276.982 138.832 276.982 140.88C276.982 142.843 276.811 144.549 276.47 146H255.99C255.649 144.549 255.478 142.843 255.478 140.88C255.478 138.832 255.649 137.125 255.99 135.76H250.87C250.529 134.309 250.358 132.603 250.358 130.64C250.358 128.592 250.529 126.885 250.87 125.52H255.99C255.649 124.069 255.478 122.363 255.478 120.4C255.478 118.352 255.649 116.645 255.99 115.28H276.47C276.129 113.829 275.958 112.123 275.958 110.16C275.958 108.112 276.129 106.405 276.47 105.04H258.55C258.209 103.589 258.038 101.883 258.038 99.92C258.038 97.872 258.209 96.1653 258.55 94.8H281.59C281.931 96.1653 282.102 97.872 282.102 99.92C282.102 101.883 281.931 103.589 281.59 105.04H286.71C287.051 106.405 287.222 108.112 287.222 110.16C287.222 112.123 287.051 113.829 286.71 115.28C287.051 116.645 287.222 118.352 287.222 120.4C287.222 122.363 287.051 124.069 286.71 125.52C287.051 126.885 287.222 128.592 287.222 130.64C287.222 132.603 287.051 134.309 286.71 135.76H291.83ZM343.08 84.56C343.421 85.9253 343.592 87.632 343.592 89.68C343.592 91.6427 343.421 93.3493 343.08 94.8C343.421 96.1653 343.592 97.872 343.592 99.92C343.592 101.883 343.421 103.589 343.08 105.04C343.421 106.405 343.592 108.112 343.592 110.16C343.592 112.123 343.421 113.829 343.08 115.28C343.421 116.645 343.592 118.352 343.592 120.4C343.592 122.363 343.421 124.069 343.08 125.52C343.421 126.885 343.592 128.592 343.592 130.64C343.592 132.603 343.421 134.309 343.08 135.76C343.421 137.125 343.592 138.832 343.592 140.88C343.592 142.843 343.421 144.549 343.08 146H332.84C332.499 144.549 332.328 142.843 332.328 140.88C332.328 138.832 332.499 137.125 332.84 135.76H329C328.659 134.309 328.488 132.603 328.488 130.64C328.488 128.592 328.659 126.885 329 125.52H332.84C332.499 124.069 332.328 122.363 332.328 120.4C332.328 118.352 332.499 116.645 332.84 115.28H329C328.659 113.829 328.488 112.123 328.488 110.16C328.488 108.112 328.659 106.405 329 105.04H332.84C332.499 103.589 332.328 101.883 332.328 99.92C332.328 97.872 332.499 96.1653 332.84 94.8C332.499 93.3493 332.328 91.6427 332.328 89.68C332.328 87.632 332.499 85.9253 332.84 84.56C332.499 83.1093 332.328 81.4027 332.328 79.44C332.328 77.392 332.499 75.6853 332.84 74.32H343.08C343.421 75.6853 343.592 77.392 343.592 79.44C343.592 81.4027 343.421 83.1093 343.08 84.56ZM326.952 99.92C326.952 101.883 326.781 103.589 326.44 105.04H313.64C313.981 106.405 314.152 108.112 314.152 110.16C314.152 112.123 313.981 113.829 313.64 115.28H309.8C310.141 116.645 310.312 118.352 310.312 120.4C310.312 122.363 310.141 124.069 309.8 125.52H313.64C313.981 126.885 314.152 128.592 314.152 130.64C314.152 132.603 313.981 134.309 313.64 135.76H326.44C326.781 137.125 326.952 138.832 326.952 140.88C326.952 142.843 326.781 144.549 326.44 146H312.36C312.019 144.549 311.848 142.843 311.848 140.88C311.848 138.832 312.019 137.125 312.36 135.76H305.96C305.619 134.309 305.448 132.603 305.448 130.64C305.448 128.592 305.619 126.885 305.96 125.52H302.12C301.779 124.069 301.608 122.363 301.608 120.4C301.608 118.352 301.779 116.645 302.12 115.28H305.96C305.619 113.829 305.448 112.123 305.448 110.16C305.448 108.112 305.619 106.405 305.96 105.04H312.36C312.019 103.589 311.848 101.883 311.848 99.92C311.848 97.872 312.019 96.1653 312.36 94.8H326.44C326.781 96.1653 326.952 97.872 326.952 99.92ZM389.21 135.76C389.551 137.125 389.722 138.832 389.722 140.88C389.722 142.843 389.551 144.549 389.21 146H358.49C358.149 144.549 357.978 142.843 357.978 140.88C357.978 138.832 358.149 137.125 358.49 135.76H368.73C368.389 134.309 368.218 132.603 368.218 130.64C368.218 128.592 368.389 126.885 368.73 125.52C368.389 124.069 368.218 122.363 368.218 120.4C368.218 118.352 368.389 116.645 368.73 115.28C368.389 113.829 368.218 112.123 368.218 110.16C368.218 108.112 368.389 106.405 368.73 105.04C368.389 103.589 368.218 101.883 368.218 99.92C368.218 97.872 368.389 96.1653 368.73 94.8C368.389 93.3493 368.218 91.6427 368.218 89.68C368.218 87.632 368.389 85.9253 368.73 84.56H361.05C360.709 83.1093 360.538 81.4027 360.538 79.44C360.538 77.392 360.709 75.6853 361.05 74.32H378.97C379.311 75.6853 379.482 77.392 379.482 79.44C379.482 81.4027 379.311 83.1093 378.97 84.56C379.311 85.9253 379.482 87.632 379.482 89.68C379.482 91.6427 379.311 93.3493 378.97 94.8C379.311 96.1653 379.482 97.872 379.482 99.92C379.482 101.883 379.311 103.589 378.97 105.04C379.311 106.405 379.482 108.112 379.482 110.16C379.482 112.123 379.311 113.829 378.97 115.28C379.311 116.645 379.482 118.352 379.482 120.4C379.482 122.363 379.311 124.069 378.97 125.52C379.311 126.885 379.482 128.592 379.482 130.64C379.482 132.603 379.311 134.309 378.97 135.76H389.21ZM419.98 84.56C419.639 83.1093 419.468 81.4027 419.468 79.44C419.468 77.392 419.639 75.6853 419.98 74.32H430.22C430.561 75.6853 430.732 77.392 430.732 79.44C430.732 81.4027 430.561 83.1093 430.22 84.56H419.98ZM440.46 135.76C440.801 137.125 440.972 138.832 440.972 140.88C440.972 142.843 440.801 144.549 440.46 146H409.74C409.399 144.549 409.228 142.843 409.228 140.88C409.228 138.832 409.399 137.125 409.74 135.76H419.98C419.639 134.309 419.468 132.603 419.468 130.64C419.468 128.592 419.639 126.885 419.98 125.52C419.639 124.069 419.468 122.363 419.468 120.4C419.468 118.352 419.639 116.645 419.98 115.28C419.639 113.829 419.468 112.123 419.468 110.16C419.468 108.112 419.639 106.405 419.98 105.04H412.3C411.959 103.589 411.788 101.883 411.788 99.92C411.788 97.872 411.959 96.1653 412.3 94.8H430.22C430.561 96.1653 430.732 97.872 430.732 99.92C430.732 101.883 430.561 103.589 430.22 105.04C430.561 106.405 430.732 108.112 430.732 110.16C430.732 112.123 430.561 113.829 430.22 115.28C430.561 116.645 430.732 118.352 430.732 120.4C430.732 122.363 430.561 124.069 430.22 125.52C430.561 126.885 430.732 128.592 430.732 130.64C430.732 132.603 430.561 134.309 430.22 135.76H440.46ZM494.782 130.64C494.782 132.603 494.611 134.309 494.27 135.76H489.15C489.491 137.125 489.662 138.832 489.662 140.88C489.662 142.843 489.491 144.549 489.15 146H460.99C460.649 144.549 460.478 142.843 460.478 140.88C460.478 138.832 460.649 137.125 460.99 135.76H484.03C483.689 134.309 483.518 132.603 483.518 130.64C483.518 128.592 483.689 126.885 484.03 125.52H463.55C463.209 124.069 463.038 122.363 463.038 120.4C463.038 118.352 463.209 116.645 463.55 115.28H458.43C458.089 113.829 457.918 112.123 457.918 110.16C457.918 108.112 458.089 106.405 458.43 105.04H463.55C463.209 103.589 463.038 101.883 463.038 99.92C463.038 97.872 463.209 96.1653 463.55 94.8H491.71C492.051 96.1653 492.222 97.872 492.222 99.92C492.222 101.883 492.051 103.589 491.71 105.04H468.67C469.011 106.405 469.182 108.112 469.182 110.16C469.182 112.123 469.011 113.829 468.67 115.28H489.15C489.491 116.645 489.662 118.352 489.662 120.4C489.662 122.363 489.491 124.069 489.15 125.52H494.27C494.611 126.885 494.782 128.592 494.782 130.64ZM542.96 135.76C543.301 137.125 543.472 138.832 543.472 140.88C543.472 142.843 543.301 144.549 542.96 146H522.48C522.139 144.549 521.968 142.843 521.968 140.88C521.968 138.832 522.139 137.125 522.48 135.76H517.36C517.019 134.309 516.848 132.603 516.848 130.64C516.848 128.592 517.019 126.885 517.36 125.52C517.019 124.069 516.848 122.363 516.848 120.4C516.848 118.352 517.019 116.645 517.36 115.28C517.019 113.829 516.848 112.123 516.848 110.16C516.848 108.112 517.019 106.405 517.36 105.04H507.12C506.779 103.589 506.608 101.883 506.608 99.92C506.608 97.872 506.779 96.1653 507.12 94.8H517.36C517.019 93.3493 516.848 91.6427 516.848 89.68C516.848 87.632 517.019 85.9253 517.36 84.56C517.019 83.1093 516.848 81.4027 516.848 79.44C516.848 77.392 517.019 75.6853 517.36 74.32H527.6C527.941 75.6853 528.112 77.392 528.112 79.44C528.112 81.4027 527.941 83.1093 527.6 84.56C527.941 85.9253 528.112 87.632 528.112 89.68C528.112 91.6427 527.941 93.3493 527.6 94.8H542.96C543.301 96.1653 543.472 97.872 543.472 99.92C543.472 101.883 543.301 103.589 542.96 105.04H527.6C527.941 106.405 528.112 108.112 528.112 110.16C528.112 112.123 527.941 113.829 527.6 115.28C527.941 116.645 528.112 118.352 528.112 120.4C528.112 122.363 527.941 124.069 527.6 125.52C527.941 126.885 528.112 128.592 528.112 130.64C528.112 132.603 527.941 134.309 527.6 135.76H542.96Z"
      fill="white" />
    <rect x="50" y="177" width="500" height="10" fill="#14CCCC" />
    <rect x="50" y="197" width="500" height="10" fill="#14CCCC" />
    <path
      d="M76.262 76.44C76.262 78.4027 76.0913 80.1093 75.75 81.56H62.95C62.6087 80.1093 62.438 78.4027 62.438 76.44C62.438 74.392 62.6087 72.6853 62.95 71.32H75.75C76.0913 72.6853 76.262 74.392 76.262 76.44ZM62.95 122.52C63.2913 123.885 63.462 125.592 63.462 127.64C63.462 129.603 63.2913 131.309 62.95 132.76H56.55C56.2087 131.309 56.038 129.603 56.038 127.64C56.038 125.592 56.2087 123.885 56.55 122.52H52.71C52.3687 121.069 52.198 119.363 52.198 117.4C52.198 115.352 52.3687 113.645 52.71 112.28C52.3687 110.829 52.198 109.123 52.198 107.16C52.198 105.112 52.3687 103.405 52.71 102.04C52.3687 100.589 52.198 98.8827 52.198 96.92C52.198 94.872 52.3687 93.1653 52.71 91.8H56.55C56.2087 90.3493 56.038 88.6427 56.038 86.68C56.038 84.632 56.2087 82.9253 56.55 81.56H62.95C63.2913 82.9253 63.462 84.632 63.462 86.68C63.462 88.6427 63.2913 90.3493 62.95 91.8C63.2913 93.1653 63.462 94.872 63.462 96.92C63.462 98.8827 63.2913 100.589 62.95 102.04C63.2913 103.405 63.462 105.112 63.462 107.16C63.462 109.123 63.2913 110.829 62.95 112.28C63.2913 113.645 63.462 115.352 63.462 117.4C63.462 119.363 63.2913 121.069 62.95 122.52ZM85.99 102.04C86.3313 103.405 86.502 105.112 86.502 107.16C86.502 109.123 86.3313 110.829 85.99 112.28C86.3313 113.645 86.502 115.352 86.502 117.4C86.502 119.363 86.3313 121.069 85.99 122.52H82.15C82.4913 123.885 82.662 125.592 82.662 127.64C82.662 129.603 82.4913 131.309 82.15 132.76H75.75C75.4087 131.309 75.238 129.603 75.238 127.64C75.238 125.592 75.4087 123.885 75.75 122.52C75.4087 121.069 75.238 119.363 75.238 117.4C75.238 115.352 75.4087 113.645 75.75 112.28C75.4087 110.829 75.238 109.123 75.238 107.16C75.238 105.112 75.4087 103.405 75.75 102.04C75.4087 100.589 75.238 98.8827 75.238 96.92C75.238 94.872 75.4087 93.1653 75.75 91.8C75.4087 90.3493 75.238 88.6427 75.238 86.68C75.238 84.632 75.4087 82.9253 75.75 81.56H82.15C82.4913 82.9253 82.662 84.632 82.662 86.68C82.662 88.6427 82.4913 90.3493 82.15 91.8H85.99C86.3313 93.1653 86.502 94.872 86.502 96.92C86.502 98.8827 86.3313 100.589 85.99 102.04ZM62.438 137.88C62.438 135.832 62.6087 134.125 62.95 132.76H75.75C76.0913 134.125 76.262 135.832 76.262 137.88C76.262 139.843 76.0913 141.549 75.75 143H62.95C62.6087 141.549 62.438 139.843 62.438 137.88ZM138.52 132.76C138.861 134.125 139.032 135.832 139.032 137.88C139.032 139.843 138.861 141.549 138.52 143H128.28C127.939 141.549 127.768 139.843 127.768 137.88C127.768 135.832 127.939 134.125 128.28 132.76H124.44C124.099 131.309 123.928 129.603 123.928 127.64C123.928 125.592 124.099 123.885 124.44 122.52H118.04C118.381 123.885 118.552 125.592 118.552 127.64C118.552 129.603 118.381 131.309 118.04 132.76H112.92C113.261 134.125 113.432 135.832 113.432 137.88C113.432 139.843 113.261 141.549 112.92 143H102.68C102.339 141.549 102.168 139.843 102.168 137.88C102.168 135.832 102.339 134.125 102.68 132.76H107.8C107.459 131.309 107.288 129.603 107.288 127.64C107.288 125.592 107.459 123.885 107.8 122.52H112.92C112.579 121.069 112.408 119.363 112.408 117.4C112.408 115.352 112.579 113.645 112.92 112.28H107.8C107.459 110.829 107.288 109.123 107.288 107.16C107.288 105.112 107.459 103.405 107.8 102.04H102.68C102.339 100.589 102.168 98.8827 102.168 96.92C102.168 94.872 102.339 93.1653 102.68 91.8H112.92C113.261 93.1653 113.432 94.872 113.432 96.92C113.432 98.8827 113.261 100.589 112.92 102.04H118.04C118.381 103.405 118.552 105.112 118.552 107.16C118.552 109.123 118.381 110.829 118.04 112.28H124.44C124.099 110.829 123.928 109.123 123.928 107.16C123.928 105.112 124.099 103.405 124.44 102.04H128.28C127.939 100.589 127.768 98.8827 127.768 96.92C127.768 94.872 127.939 93.1653 128.28 91.8H138.52C138.861 93.1653 139.032 94.872 139.032 96.92C139.032 98.8827 138.861 100.589 138.52 102.04H134.68C135.021 103.405 135.192 105.112 135.192 107.16C135.192 109.123 135.021 110.829 134.68 112.28H128.28C128.621 113.645 128.792 115.352 128.792 117.4C128.792 119.363 128.621 121.069 128.28 122.52H134.68C135.021 123.885 135.192 125.592 135.192 127.64C135.192 129.603 135.021 131.309 134.68 132.76H138.52ZM192.33 81.56C192.671 82.9253 192.842 84.632 192.842 86.68C192.842 88.6427 192.671 90.3493 192.33 91.8C192.671 93.1653 192.842 94.872 192.842 96.92C192.842 98.8827 192.671 100.589 192.33 102.04C192.671 103.405 192.842 105.112 192.842 107.16C192.842 109.123 192.671 110.829 192.33 112.28C192.671 113.645 192.842 115.352 192.842 117.4C192.842 119.363 192.671 121.069 192.33 122.52C192.671 123.885 192.842 125.592 192.842 127.64C192.842 129.603 192.671 131.309 192.33 132.76C192.671 134.125 192.842 135.832 192.842 137.88C192.842 139.843 192.671 141.549 192.33 143H182.09C181.749 141.549 181.578 139.843 181.578 137.88C181.578 135.832 181.749 134.125 182.09 132.76H178.25C177.909 131.309 177.738 129.603 177.738 127.64C177.738 125.592 177.909 123.885 178.25 122.52H182.09C181.749 121.069 181.578 119.363 181.578 117.4C181.578 115.352 181.749 113.645 182.09 112.28H178.25C177.909 110.829 177.738 109.123 177.738 107.16C177.738 105.112 177.909 103.405 178.25 102.04H182.09C181.749 100.589 181.578 98.8827 181.578 96.92C181.578 94.872 181.749 93.1653 182.09 91.8C181.749 90.3493 181.578 88.6427 181.578 86.68C181.578 84.632 181.749 82.9253 182.09 81.56C181.749 80.1093 181.578 78.4027 181.578 76.44C181.578 74.392 181.749 72.6853 182.09 71.32H192.33C192.671 72.6853 192.842 74.392 192.842 76.44C192.842 78.4027 192.671 80.1093 192.33 81.56ZM176.202 96.92C176.202 98.8827 176.031 100.589 175.69 102.04H162.89C163.231 103.405 163.402 105.112 163.402 107.16C163.402 109.123 163.231 110.829 162.89 112.28H159.05C159.391 113.645 159.562 115.352 159.562 117.4C159.562 119.363 159.391 121.069 159.05 122.52H162.89C163.231 123.885 163.402 125.592 163.402 127.64C163.402 129.603 163.231 131.309 162.89 132.76H175.69C176.031 134.125 176.202 135.832 176.202 137.88C176.202 139.843 176.031 141.549 175.69 143H161.61C161.269 141.549 161.098 139.843 161.098 137.88C161.098 135.832 161.269 134.125 161.61 132.76H155.21C154.869 131.309 154.698 129.603 154.698 127.64C154.698 125.592 154.869 123.885 155.21 122.52H151.37C151.029 121.069 150.858 119.363 150.858 117.4C150.858 115.352 151.029 113.645 151.37 112.28H155.21C154.869 110.829 154.698 109.123 154.698 107.16C154.698 105.112 154.869 103.405 155.21 102.04H161.61C161.269 100.589 161.098 98.8827 161.098 96.92C161.098 94.872 161.269 93.1653 161.61 91.8H175.69C176.031 93.1653 176.202 94.872 176.202 96.92ZM244.092 107.16C244.092 109.123 243.921 110.829 243.58 112.28C243.921 113.645 244.092 115.352 244.092 117.4C244.092 119.363 243.921 121.069 243.58 122.52H216.7C217.041 123.885 217.212 125.592 217.212 127.64C217.212 129.603 217.041 131.309 216.7 132.76H238.46C238.801 134.125 238.972 135.832 238.972 137.88C238.972 139.843 238.801 141.549 238.46 143H212.86C212.519 141.549 212.348 139.843 212.348 137.88C212.348 135.832 212.519 134.125 212.86 132.76H206.46C206.119 131.309 205.948 129.603 205.948 127.64C205.948 125.592 206.119 123.885 206.46 122.52H202.62C202.279 121.069 202.108 119.363 202.108 117.4C202.108 115.352 202.279 113.645 202.62 112.28H206.46C206.119 110.829 205.948 109.123 205.948 107.16C205.948 105.112 206.119 103.405 206.46 102.04H212.86C212.519 100.589 212.348 98.8827 212.348 96.92C212.348 94.872 212.519 93.1653 212.86 91.8H238.46C238.801 93.1653 238.972 94.872 238.972 96.92C238.972 98.8827 238.801 100.589 238.46 102.04H243.58C243.921 103.405 244.092 105.112 244.092 107.16ZM233.34 112.28C232.999 110.829 232.828 109.123 232.828 107.16C232.828 105.112 232.999 103.405 233.34 102.04H216.7C217.041 103.405 217.212 105.112 217.212 107.16C217.212 109.123 217.041 110.829 216.7 112.28H233.34ZM294.83 132.76C295.171 134.125 295.342 135.832 295.342 137.88C295.342 139.843 295.171 141.549 294.83 143H284.59C284.249 141.549 284.078 139.843 284.078 137.88C284.078 135.832 284.249 134.125 284.59 132.76H279.47C279.129 131.309 278.958 129.603 278.958 127.64C278.958 125.592 279.129 123.885 279.47 122.52H264.11C264.451 123.885 264.622 125.592 264.622 127.64C264.622 129.603 264.451 131.309 264.11 132.76H279.47C279.811 134.125 279.982 135.832 279.982 137.88C279.982 139.843 279.811 141.549 279.47 143H258.99C258.649 141.549 258.478 139.843 258.478 137.88C258.478 135.832 258.649 134.125 258.99 132.76H253.87C253.529 131.309 253.358 129.603 253.358 127.64C253.358 125.592 253.529 123.885 253.87 122.52H258.99C258.649 121.069 258.478 119.363 258.478 117.4C258.478 115.352 258.649 113.645 258.99 112.28H279.47C279.129 110.829 278.958 109.123 278.958 107.16C278.958 105.112 279.129 103.405 279.47 102.04H261.55C261.209 100.589 261.038 98.8827 261.038 96.92C261.038 94.872 261.209 93.1653 261.55 91.8H284.59C284.931 93.1653 285.102 94.872 285.102 96.92C285.102 98.8827 284.931 100.589 284.59 102.04H289.71C290.051 103.405 290.222 105.112 290.222 107.16C290.222 109.123 290.051 110.829 289.71 112.28C290.051 113.645 290.222 115.352 290.222 117.4C290.222 119.363 290.051 121.069 289.71 122.52C290.051 123.885 290.222 125.592 290.222 127.64C290.222 129.603 290.051 131.309 289.71 132.76H294.83ZM346.08 81.56C346.421 82.9253 346.592 84.632 346.592 86.68C346.592 88.6427 346.421 90.3493 346.08 91.8C346.421 93.1653 346.592 94.872 346.592 96.92C346.592 98.8827 346.421 100.589 346.08 102.04C346.421 103.405 346.592 105.112 346.592 107.16C346.592 109.123 346.421 110.829 346.08 112.28C346.421 113.645 346.592 115.352 346.592 117.4C346.592 119.363 346.421 121.069 346.08 122.52C346.421 123.885 346.592 125.592 346.592 127.64C346.592 129.603 346.421 131.309 346.08 132.76C346.421 134.125 346.592 135.832 346.592 137.88C346.592 139.843 346.421 141.549 346.08 143H335.84C335.499 141.549 335.328 139.843 335.328 137.88C335.328 135.832 335.499 134.125 335.84 132.76H332C331.659 131.309 331.488 129.603 331.488 127.64C331.488 125.592 331.659 123.885 332 122.52H335.84C335.499 121.069 335.328 119.363 335.328 117.4C335.328 115.352 335.499 113.645 335.84 112.28H332C331.659 110.829 331.488 109.123 331.488 107.16C331.488 105.112 331.659 103.405 332 102.04H335.84C335.499 100.589 335.328 98.8827 335.328 96.92C335.328 94.872 335.499 93.1653 335.84 91.8C335.499 90.3493 335.328 88.6427 335.328 86.68C335.328 84.632 335.499 82.9253 335.84 81.56C335.499 80.1093 335.328 78.4027 335.328 76.44C335.328 74.392 335.499 72.6853 335.84 71.32H346.08C346.421 72.6853 346.592 74.392 346.592 76.44C346.592 78.4027 346.421 80.1093 346.08 81.56ZM329.952 96.92C329.952 98.8827 329.781 100.589 329.44 102.04H316.64C316.981 103.405 317.152 105.112 317.152 107.16C317.152 109.123 316.981 110.829 316.64 112.28H312.8C313.141 113.645 313.312 115.352 313.312 117.4C313.312 119.363 313.141 121.069 312.8 122.52H316.64C316.981 123.885 317.152 125.592 317.152 127.64C317.152 129.603 316.981 131.309 316.64 132.76H329.44C329.781 134.125 329.952 135.832 329.952 137.88C329.952 139.843 329.781 141.549 329.44 143H315.36C315.019 141.549 314.848 139.843 314.848 137.88C314.848 135.832 315.019 134.125 315.36 132.76H308.96C308.619 131.309 308.448 129.603 308.448 127.64C308.448 125.592 308.619 123.885 308.96 122.52H305.12C304.779 121.069 304.608 119.363 304.608 117.4C304.608 115.352 304.779 113.645 305.12 112.28H308.96C308.619 110.829 308.448 109.123 308.448 107.16C308.448 105.112 308.619 103.405 308.96 102.04H315.36C315.019 100.589 314.848 98.8827 314.848 96.92C314.848 94.872 315.019 93.1653 315.36 91.8H329.44C329.781 93.1653 329.952 94.872 329.952 96.92ZM392.21 132.76C392.551 134.125 392.722 135.832 392.722 137.88C392.722 139.843 392.551 141.549 392.21 143H361.49C361.149 141.549 360.978 139.843 360.978 137.88C360.978 135.832 361.149 134.125 361.49 132.76H371.73C371.389 131.309 371.218 129.603 371.218 127.64C371.218 125.592 371.389 123.885 371.73 122.52C371.389 121.069 371.218 119.363 371.218 117.4C371.218 115.352 371.389 113.645 371.73 112.28C371.389 110.829 371.218 109.123 371.218 107.16C371.218 105.112 371.389 103.405 371.73 102.04C371.389 100.589 371.218 98.8827 371.218 96.92C371.218 94.872 371.389 93.1653 371.73 91.8C371.389 90.3493 371.218 88.6427 371.218 86.68C371.218 84.632 371.389 82.9253 371.73 81.56H364.05C363.709 80.1093 363.538 78.4027 363.538 76.44C363.538 74.392 363.709 72.6853 364.05 71.32H381.97C382.311 72.6853 382.482 74.392 382.482 76.44C382.482 78.4027 382.311 80.1093 381.97 81.56C382.311 82.9253 382.482 84.632 382.482 86.68C382.482 88.6427 382.311 90.3493 381.97 91.8C382.311 93.1653 382.482 94.872 382.482 96.92C382.482 98.8827 382.311 100.589 381.97 102.04C382.311 103.405 382.482 105.112 382.482 107.16C382.482 109.123 382.311 110.829 381.97 112.28C382.311 113.645 382.482 115.352 382.482 117.4C382.482 119.363 382.311 121.069 381.97 122.52C382.311 123.885 382.482 125.592 382.482 127.64C382.482 129.603 382.311 131.309 381.97 132.76H392.21ZM422.98 81.56C422.639 80.1093 422.468 78.4027 422.468 76.44C422.468 74.392 422.639 72.6853 422.98 71.32H433.22C433.561 72.6853 433.732 74.392 433.732 76.44C433.732 78.4027 433.561 80.1093 433.22 81.56H422.98ZM443.46 132.76C443.801 134.125 443.972 135.832 443.972 137.88C443.972 139.843 443.801 141.549 443.46 143H412.74C412.399 141.549 412.228 139.843 412.228 137.88C412.228 135.832 412.399 134.125 412.74 132.76H422.98C422.639 131.309 422.468 129.603 422.468 127.64C422.468 125.592 422.639 123.885 422.98 122.52C422.639 121.069 422.468 119.363 422.468 117.4C422.468 115.352 422.639 113.645 422.98 112.28C422.639 110.829 422.468 109.123 422.468 107.16C422.468 105.112 422.639 103.405 422.98 102.04H415.3C414.959 100.589 414.788 98.8827 414.788 96.92C414.788 94.872 414.959 93.1653 415.3 91.8H433.22C433.561 93.1653 433.732 94.872 433.732 96.92C433.732 98.8827 433.561 100.589 433.22 102.04C433.561 103.405 433.732 105.112 433.732 107.16C433.732 109.123 433.561 110.829 433.22 112.28C433.561 113.645 433.732 115.352 433.732 117.4C433.732 119.363 433.561 121.069 433.22 122.52C433.561 123.885 433.732 125.592 433.732 127.64C433.732 129.603 433.561 131.309 433.22 132.76H443.46ZM497.782 127.64C497.782 129.603 497.611 131.309 497.27 132.76H492.15C492.491 134.125 492.662 135.832 492.662 137.88C492.662 139.843 492.491 141.549 492.15 143H463.99C463.649 141.549 463.478 139.843 463.478 137.88C463.478 135.832 463.649 134.125 463.99 132.76H487.03C486.689 131.309 486.518 129.603 486.518 127.64C486.518 125.592 486.689 123.885 487.03 122.52H466.55C466.209 121.069 466.038 119.363 466.038 117.4C466.038 115.352 466.209 113.645 466.55 112.28H461.43C461.089 110.829 460.918 109.123 460.918 107.16C460.918 105.112 461.089 103.405 461.43 102.04H466.55C466.209 100.589 466.038 98.8827 466.038 96.92C466.038 94.872 466.209 93.1653 466.55 91.8H494.71C495.051 93.1653 495.222 94.872 495.222 96.92C495.222 98.8827 495.051 100.589 494.71 102.04H471.67C472.011 103.405 472.182 105.112 472.182 107.16C472.182 109.123 472.011 110.829 471.67 112.28H492.15C492.491 113.645 492.662 115.352 492.662 117.4C492.662 119.363 492.491 121.069 492.15 122.52H497.27C497.611 123.885 497.782 125.592 497.782 127.64ZM545.96 132.76C546.301 134.125 546.472 135.832 546.472 137.88C546.472 139.843 546.301 141.549 545.96 143H525.48C525.139 141.549 524.968 139.843 524.968 137.88C524.968 135.832 525.139 134.125 525.48 132.76H520.36C520.019 131.309 519.848 129.603 519.848 127.64C519.848 125.592 520.019 123.885 520.36 122.52C520.019 121.069 519.848 119.363 519.848 117.4C519.848 115.352 520.019 113.645 520.36 112.28C520.019 110.829 519.848 109.123 519.848 107.16C519.848 105.112 520.019 103.405 520.36 102.04H510.12C509.779 100.589 509.608 98.8827 509.608 96.92C509.608 94.872 509.779 93.1653 510.12 91.8H520.36C520.019 90.3493 519.848 88.6427 519.848 86.68C519.848 84.632 520.019 82.9253 520.36 81.56C520.019 80.1093 519.848 78.4027 519.848 76.44C519.848 74.392 520.019 72.6853 520.36 71.32H530.6C530.941 72.6853 531.112 74.392 531.112 76.44C531.112 78.4027 530.941 80.1093 530.6 81.56C530.941 82.9253 531.112 84.632 531.112 86.68C531.112 88.6427 530.941 90.3493 530.6 91.8H545.96C546.301 93.1653 546.472 94.872 546.472 96.92C546.472 98.8827 546.301 100.589 545.96 102.04H530.6C530.941 103.405 531.112 105.112 531.112 107.16C531.112 109.123 530.941 110.829 530.6 112.28C530.941 113.645 531.112 115.352 531.112 117.4C531.112 119.363 530.941 121.069 530.6 122.52C530.941 123.885 531.112 125.592 531.112 127.64C531.112 129.603 530.941 131.309 530.6 132.76H545.96Z"
      fill="#14CCCC" />
    <rect x="63" y="81" width="13" height="55" fill="#14CCCC" />
    <rect x="66" y="90" width="10" height="42" fill="white" />
    <rect x="42" y="133" width="49" height="13" fill="white" />
    <rect x="45" y="132" width="48" height="11" fill="#14CCCC" />
  </g>
  <defs>
    <filter id="filter0_d_4_98" x="-4" y="0" width="608" height="258" filterUnits="userSpaceOnUse"
      color-interpolation-filters="sRGB">
      <feFlood flood-opacity="0" result="BackgroundImageFix" />
      <feColorMatrix in="SourceAlpha" type="matrix" values="0 0 0 0 0 0 0 0 0 0 0 0 0 0 0 0 0 0 127 0"
        result="hardAlpha" />
      <feOffset dy="4" />
      <feGaussianBlur stdDeviation="2" />
      <feComposite in2="hardAlpha" operator="out" />
      <feColorMatrix type="matrix" values="0 0 0 0 0 0 0 0 0 0 0 0 0 0 0 0 0 0 0.25 0" />
      <feBlend mode="normal" in2="BackgroundImageFix" result="effect1_dropShadow_4_98" />
      <feBlend mode="normal" in="SourceGraphic" in2="effect1_dropShadow_4_98" result="shape" />
    </filter>
    <clipPath id="clip0_4_98">
      <rect width="600" height="250" fill="white" />
    </clipPath>
  </defs>
</svg>
